<svg width="57" height="57" viewBox="0 0 57 57" fill="none" xmlns="http://www.w3.org/2000/svg">
<path d="M37.258 0H19.7733C3.7962 0 0 3.79905 0 19.7419V37.2295C0 53.2009 3.77055 57 19.7419 57H37.2295C53.2009 57 57 53.2294 57 37.258V19.7733C57 3.7962 53.2294 0 37.258 0ZM46.0161 40.6695H41.8579C40.2847 40.6695 39.8116 39.3955 36.9901 36.574C34.5277 34.2 33.4875 33.9036 32.8633 33.9036C32.0026 33.9036 31.7661 34.1401 31.7661 35.3286V39.0678C31.7661 40.0795 31.4383 40.6723 28.7964 40.6723C26.2328 40.4982 23.7471 39.7185 21.5434 38.3972C19.3398 37.0758 17.4809 35.2506 16.1196 33.0714C12.8887 29.0544 10.642 24.3374 9.5589 19.2973C9.5589 18.6732 9.79545 18.1089 10.9839 18.1089H15.1421C16.2108 18.1089 16.5955 18.5848 17.0116 19.6821C19.0294 25.6215 22.4722 30.7857 23.8687 30.7857C24.4045 30.7857 24.6383 30.5491 24.6383 29.2125V23.0964C24.4616 20.3062 22.9795 20.0697 22.9795 19.0608C22.9986 18.7947 23.1205 18.5465 23.3195 18.3688C23.5185 18.1911 23.7789 18.0978 24.0454 18.1089H30.5776C31.4697 18.1089 31.7661 18.5535 31.7661 19.6222V27.8758C31.7661 28.7679 32.1508 29.0643 32.4187 29.0643C32.9545 29.0643 33.3678 28.7679 34.3482 27.7875C36.4539 25.2195 38.1744 22.3585 39.4554 19.2945C39.5871 18.927 39.8351 18.6124 40.1616 18.3985C40.4882 18.1846 40.8756 18.0829 41.2651 18.1089H45.4233C46.6687 18.1089 46.9338 18.7331 46.6687 19.6222C45.1569 23.0093 43.2861 26.2245 41.0884 29.2125C40.641 29.8965 40.4614 30.2527 41.0884 31.0536C41.5017 31.6777 42.958 32.8947 43.9384 34.0518C45.3626 35.4734 46.5457 37.1175 47.4411 38.9196C47.7973 40.0767 47.2017 40.6695 46.0161 40.6695Z" fill="black"/>
</svg>
