<svg width="57" height="57" viewBox="0 0 57 57" fill="none" xmlns="http://www.w3.org/2000/svg">
<g clip-path="url(#clip0_2004_14)">
<path d="M10.0997 0C4.50482 0 0 4.50482 0 10.0997V46.9003C0 52.4952 4.50482 57.0001 10.0997 57.0001H37.1854L57.0001 28.5072L37.1854 5.7e-05L10.0997 0ZM25.2671 10.4061H31.7027C32.0978 10.4061 32.3244 10.5506 32.3244 10.8906V46.3588C32.3244 46.6002 32.2106 46.7454 31.8719 46.7454H28.3717C28.1475 46.7454 27.9781 46.5518 27.9781 46.4069V33.2755H25.153L17.3066 46.4069C17.194 46.6485 16.9685 46.7454 16.6297 46.7454H12.6219C12.1716 46.7454 11.8892 46.4069 12.1713 45.9705L20.8068 32.5969C16.1791 30.8526 13.582 27.3155 13.582 22.5185C13.582 14.5235 18.9452 10.406 25.267 10.406L25.2671 10.4061ZM25.0978 13.5055C21.6544 13.5055 18.2667 15.9765 18.2667 22.0341C18.2667 27.8487 21.8799 30.1744 25.6055 30.1744H27.9781V13.5055H25.0978Z" fill="black"/>
</g>
<defs>
<clipPath id="clip0_2004_14">
<rect width="57" height="57" fill="white"/>
</clipPath>
</defs>
</svg>
